<?xml version="1.0" standalone="no"?>
<!DOCTYPE svg PUBLIC "-//W3C//DTD SVG 20010904//EN"
 "http://www.w3.org/TR/2001/REC-SVG-20010904/DTD/svg10.dtd">
<svg version="1.0" xmlns="http://www.w3.org/2000/svg"
 width="96.000000pt" height="96.000000pt" viewBox="0 0 96.000000 96.000000"
 preserveAspectRatio="xMidYMid meet">

<g transform="translate(0.000000,96.000000) scale(0.100000,-0.100000)"
fill="#000000" stroke="none">
<path d="M402 765 c-18 -8 -40 -28 -50 -45 -14 -25 -23 -30 -57 -30 -22 0 -65
7 -95 15 -30 8 -67 15 -82 15 l-28 0 0 -270 0 -270 391 0 391 0 -4 137 c-2
117 -6 143 -23 173 -30 51 -72 71 -168 79 -45 4 -93 13 -105 20 -39 21 -62 70
-62 134 l0 57 -37 0 c-21 -1 -53 -7 -71 -15z m55 -107 c11 -51 10 -54 -15 -81
l-26 -27 22 -22 22 -22 30 29 c24 23 30 25 35 12 4 -8 2 -24 -4 -36 -16 -29
-14 -37 14 -49 24 -11 27 -9 42 22 17 37 10 36 139 20 54 -6 82 -37 90 -97 l7
-47 -332 0 -331 0 0 60 0 60 63 0 c110 0 167 48 175 147 5 63 15 83 41 83 12
0 20 -14 28 -52z m-189 -24 c40 -5 62 -11 62 -20 0 -47 -45 -74 -125 -74 l-55
0 0 56 c0 56 0 56 28 50 15 -3 55 -9 90 -12z m542 -364 l0 -30 -330 0 -330 0
0 30 0 30 330 0 330 0 0 -30z"/>
</g>
</svg>
